<mxfile host="app.diagrams.net" modified="2023-08-25T16:31:41.176Z" agent="Mozilla/5.0 (X11; Linux x86_64; rv:109.0) Gecko/20100101 Firefox/112.0" etag="SnlQxKVNybszkoUh43QA" version="21.6.9" type="github">
  <diagram id="R2lEEEUBdFMjLlhIrx00" name="Page-1">
    <mxGraphModel dx="1434" dy="678" grid="1" gridSize="10" guides="1" tooltips="1" connect="1" arrows="1" fold="1" page="1" pageScale="1" pageWidth="850" pageHeight="1100" math="0" shadow="0" extFonts="Permanent Marker^https://fonts.googleapis.com/css?family=Permanent+Marker">
      <root>
        <mxCell id="0" />
        <mxCell id="1" parent="0" />
        <mxCell id="a1M_aZ61iltw1CNODRPH-3" style="edgeStyle=orthogonalEdgeStyle;rounded=0;orthogonalLoop=1;jettySize=auto;html=1;" edge="1" parent="1" source="a1M_aZ61iltw1CNODRPH-2" target="a1M_aZ61iltw1CNODRPH-4">
          <mxGeometry relative="1" as="geometry">
            <mxPoint x="220" y="100" as="targetPoint" />
          </mxGeometry>
        </mxCell>
        <mxCell id="a1M_aZ61iltw1CNODRPH-2" value="Departamento" style="swimlane;whiteSpace=wrap;html=1;" vertex="1" parent="1">
          <mxGeometry x="20" y="40" width="120" height="120" as="geometry" />
        </mxCell>
        <mxCell id="a1M_aZ61iltw1CNODRPH-5" style="edgeStyle=orthogonalEdgeStyle;rounded=0;orthogonalLoop=1;jettySize=auto;html=1;" edge="1" parent="1" source="a1M_aZ61iltw1CNODRPH-4" target="a1M_aZ61iltw1CNODRPH-6">
          <mxGeometry relative="1" as="geometry">
            <mxPoint x="310" y="100" as="targetPoint" />
          </mxGeometry>
        </mxCell>
        <mxCell id="a1M_aZ61iltw1CNODRPH-4" value="TER" style="rhombus;whiteSpace=wrap;html=1;" vertex="1" parent="1">
          <mxGeometry x="180" y="60" width="80" height="80" as="geometry" />
        </mxCell>
        <mxCell id="a1M_aZ61iltw1CNODRPH-7" style="edgeStyle=orthogonalEdgeStyle;rounded=0;orthogonalLoop=1;jettySize=auto;html=1;" edge="1" parent="1" source="a1M_aZ61iltw1CNODRPH-6" target="a1M_aZ61iltw1CNODRPH-8">
          <mxGeometry relative="1" as="geometry">
            <mxPoint x="510" y="100" as="targetPoint" />
          </mxGeometry>
        </mxCell>
        <mxCell id="a1M_aZ61iltw1CNODRPH-6" value="Funcionário" style="swimlane;whiteSpace=wrap;html=1;" vertex="1" parent="1">
          <mxGeometry x="320" y="45" width="120" height="110" as="geometry" />
        </mxCell>
        <mxCell id="a1M_aZ61iltw1CNODRPH-9" style="edgeStyle=orthogonalEdgeStyle;rounded=0;orthogonalLoop=1;jettySize=auto;html=1;" edge="1" parent="1" source="a1M_aZ61iltw1CNODRPH-8" target="a1M_aZ61iltw1CNODRPH-10">
          <mxGeometry relative="1" as="geometry">
            <mxPoint x="640" y="100" as="targetPoint" />
          </mxGeometry>
        </mxCell>
        <mxCell id="a1M_aZ61iltw1CNODRPH-8" value="TER" style="rhombus;whiteSpace=wrap;html=1;" vertex="1" parent="1">
          <mxGeometry x="500" y="60" width="80" height="80" as="geometry" />
        </mxCell>
        <mxCell id="a1M_aZ61iltw1CNODRPH-14" style="edgeStyle=orthogonalEdgeStyle;rounded=0;orthogonalLoop=1;jettySize=auto;html=1;" edge="1" parent="1" source="a1M_aZ61iltw1CNODRPH-10" target="a1M_aZ61iltw1CNODRPH-15">
          <mxGeometry relative="1" as="geometry">
            <mxPoint x="410" y="240" as="targetPoint" />
          </mxGeometry>
        </mxCell>
        <mxCell id="a1M_aZ61iltw1CNODRPH-30" style="edgeStyle=orthogonalEdgeStyle;rounded=0;orthogonalLoop=1;jettySize=auto;html=1;" edge="1" parent="1" source="a1M_aZ61iltw1CNODRPH-10" target="a1M_aZ61iltw1CNODRPH-31">
          <mxGeometry relative="1" as="geometry">
            <mxPoint x="540" y="310" as="targetPoint" />
          </mxGeometry>
        </mxCell>
        <mxCell id="a1M_aZ61iltw1CNODRPH-10" value="Projeto" style="swimlane;whiteSpace=wrap;html=1;" vertex="1" parent="1">
          <mxGeometry x="500" y="200" width="80" height="80" as="geometry" />
        </mxCell>
        <mxCell id="a1M_aZ61iltw1CNODRPH-36" value="N" style="text;html=1;align=center;verticalAlign=middle;resizable=0;points=[];autosize=1;strokeColor=none;fillColor=none;" vertex="1" parent="a1M_aZ61iltw1CNODRPH-10">
          <mxGeometry y="-30" width="30" height="30" as="geometry" />
        </mxCell>
        <mxCell id="a1M_aZ61iltw1CNODRPH-16" style="edgeStyle=orthogonalEdgeStyle;rounded=0;orthogonalLoop=1;jettySize=auto;html=1;" edge="1" parent="1" source="a1M_aZ61iltw1CNODRPH-15" target="a1M_aZ61iltw1CNODRPH-17">
          <mxGeometry relative="1" as="geometry">
            <mxPoint x="160" y="240" as="targetPoint" />
          </mxGeometry>
        </mxCell>
        <mxCell id="a1M_aZ61iltw1CNODRPH-15" value="TER" style="rhombus;whiteSpace=wrap;html=1;" vertex="1" parent="1">
          <mxGeometry x="370" y="200" width="80" height="80" as="geometry" />
        </mxCell>
        <mxCell id="a1M_aZ61iltw1CNODRPH-19" style="edgeStyle=orthogonalEdgeStyle;rounded=0;orthogonalLoop=1;jettySize=auto;html=1;" edge="1" parent="1" source="a1M_aZ61iltw1CNODRPH-17" target="a1M_aZ61iltw1CNODRPH-21">
          <mxGeometry relative="1" as="geometry">
            <mxPoint x="110" y="410" as="targetPoint" />
            <Array as="points">
              <mxPoint x="110" y="480" />
            </Array>
          </mxGeometry>
        </mxCell>
        <mxCell id="a1M_aZ61iltw1CNODRPH-17" value="Fornecedor" style="swimlane;whiteSpace=wrap;html=1;" vertex="1" parent="1">
          <mxGeometry x="60" y="190" width="100" height="100" as="geometry" />
        </mxCell>
        <mxCell id="a1M_aZ61iltw1CNODRPH-18" value="Data de Inicio" style="text;html=1;align=center;verticalAlign=middle;resizable=0;points=[];autosize=1;strokeColor=none;fillColor=none;" vertex="1" parent="a1M_aZ61iltw1CNODRPH-17">
          <mxGeometry y="50" width="100" height="30" as="geometry" />
        </mxCell>
        <mxCell id="a1M_aZ61iltw1CNODRPH-24" style="edgeStyle=orthogonalEdgeStyle;rounded=0;orthogonalLoop=1;jettySize=auto;html=1;entryX=0.5;entryY=1;entryDx=0;entryDy=0;" edge="1" parent="1" source="a1M_aZ61iltw1CNODRPH-21" target="a1M_aZ61iltw1CNODRPH-23">
          <mxGeometry relative="1" as="geometry">
            <mxPoint x="540" y="415" as="targetPoint" />
          </mxGeometry>
        </mxCell>
        <mxCell id="a1M_aZ61iltw1CNODRPH-21" value="TER" style="rhombus;whiteSpace=wrap;html=1;" vertex="1" parent="1">
          <mxGeometry x="260" y="450" width="60" height="70" as="geometry" />
        </mxCell>
        <mxCell id="a1M_aZ61iltw1CNODRPH-25" style="edgeStyle=orthogonalEdgeStyle;rounded=0;orthogonalLoop=1;jettySize=auto;html=1;" edge="1" parent="1" source="a1M_aZ61iltw1CNODRPH-23" target="a1M_aZ61iltw1CNODRPH-26">
          <mxGeometry relative="1" as="geometry">
            <mxPoint x="410" y="367.5" as="targetPoint" />
          </mxGeometry>
        </mxCell>
        <mxCell id="a1M_aZ61iltw1CNODRPH-23" value="Peças" style="swimlane;whiteSpace=wrap;html=1;" vertex="1" parent="1">
          <mxGeometry x="505" y="380" width="75" height="53.75" as="geometry" />
        </mxCell>
        <mxCell id="a1M_aZ61iltw1CNODRPH-27" style="edgeStyle=orthogonalEdgeStyle;rounded=0;orthogonalLoop=1;jettySize=auto;html=1;" edge="1" parent="1" source="a1M_aZ61iltw1CNODRPH-26" target="a1M_aZ61iltw1CNODRPH-28">
          <mxGeometry relative="1" as="geometry">
            <mxPoint x="240" y="363.75" as="targetPoint" />
          </mxGeometry>
        </mxCell>
        <mxCell id="a1M_aZ61iltw1CNODRPH-26" value="TER" style="rhombus;whiteSpace=wrap;html=1;" vertex="1" parent="1">
          <mxGeometry x="370" y="370.63" width="60" height="72.5" as="geometry" />
        </mxCell>
        <mxCell id="a1M_aZ61iltw1CNODRPH-28" value="Deposito" style="swimlane;whiteSpace=wrap;html=1;" vertex="1" parent="1">
          <mxGeometry x="140" y="376.88" width="70" height="60" as="geometry" />
        </mxCell>
        <mxCell id="a1M_aZ61iltw1CNODRPH-32" style="edgeStyle=orthogonalEdgeStyle;rounded=0;orthogonalLoop=1;jettySize=auto;html=1;" edge="1" parent="1" source="a1M_aZ61iltw1CNODRPH-31" target="a1M_aZ61iltw1CNODRPH-23">
          <mxGeometry relative="1" as="geometry" />
        </mxCell>
        <mxCell id="a1M_aZ61iltw1CNODRPH-31" value="TER" style="rhombus;whiteSpace=wrap;html=1;" vertex="1" parent="1">
          <mxGeometry x="515" y="310.63" width="50" height="49.37" as="geometry" />
        </mxCell>
        <mxCell id="a1M_aZ61iltw1CNODRPH-33" value="1" style="text;html=1;align=center;verticalAlign=middle;resizable=0;points=[];autosize=1;strokeColor=none;fillColor=none;" vertex="1" parent="1">
          <mxGeometry x="145" y="58" width="30" height="30" as="geometry" />
        </mxCell>
        <mxCell id="a1M_aZ61iltw1CNODRPH-34" value="N" style="text;html=1;align=center;verticalAlign=middle;resizable=0;points=[];autosize=1;strokeColor=none;fillColor=none;" vertex="1" parent="1">
          <mxGeometry x="285" y="58" width="30" height="30" as="geometry" />
        </mxCell>
        <mxCell id="a1M_aZ61iltw1CNODRPH-35" value="1" style="text;html=1;align=center;verticalAlign=middle;resizable=0;points=[];autosize=1;strokeColor=none;fillColor=none;" vertex="1" parent="1">
          <mxGeometry x="445" y="58" width="30" height="30" as="geometry" />
        </mxCell>
        <mxCell id="a1M_aZ61iltw1CNODRPH-37" value="N" style="text;html=1;align=center;verticalAlign=middle;resizable=0;points=[];autosize=1;strokeColor=none;fillColor=none;" vertex="1" parent="1">
          <mxGeometry x="465" y="208" width="30" height="30" as="geometry" />
        </mxCell>
        <mxCell id="a1M_aZ61iltw1CNODRPH-38" value="N" style="text;html=1;align=center;verticalAlign=middle;resizable=0;points=[];autosize=1;strokeColor=none;fillColor=none;" vertex="1" parent="1">
          <mxGeometry x="165" y="198" width="30" height="30" as="geometry" />
        </mxCell>
        <mxCell id="a1M_aZ61iltw1CNODRPH-39" value="N" style="text;html=1;align=center;verticalAlign=middle;resizable=0;points=[];autosize=1;strokeColor=none;fillColor=none;" vertex="1" parent="1">
          <mxGeometry x="115" y="290" width="30" height="30" as="geometry" />
        </mxCell>
        <mxCell id="a1M_aZ61iltw1CNODRPH-40" value="1" style="text;html=1;align=center;verticalAlign=middle;resizable=0;points=[];autosize=1;strokeColor=none;fillColor=none;" vertex="1" parent="1">
          <mxGeometry x="505" y="458" width="30" height="30" as="geometry" />
        </mxCell>
        <mxCell id="a1M_aZ61iltw1CNODRPH-41" value="N" style="text;html=1;align=center;verticalAlign=middle;resizable=0;points=[];autosize=1;strokeColor=none;fillColor=none;" vertex="1" parent="1">
          <mxGeometry x="500" y="350" width="30" height="30" as="geometry" />
        </mxCell>
        <mxCell id="a1M_aZ61iltw1CNODRPH-42" value="1" style="text;html=1;align=center;verticalAlign=middle;resizable=0;points=[];autosize=1;strokeColor=none;fillColor=none;" vertex="1" parent="1">
          <mxGeometry x="505" y="278" width="30" height="30" as="geometry" />
        </mxCell>
        <mxCell id="a1M_aZ61iltw1CNODRPH-43" value="N" style="text;html=1;align=center;verticalAlign=middle;resizable=0;points=[];autosize=1;strokeColor=none;fillColor=none;" vertex="1" parent="1">
          <mxGeometry x="475" y="378" width="30" height="30" as="geometry" />
        </mxCell>
        <mxCell id="a1M_aZ61iltw1CNODRPH-44" value="1" style="text;html=1;align=center;verticalAlign=middle;resizable=0;points=[];autosize=1;strokeColor=none;fillColor=none;" vertex="1" parent="1">
          <mxGeometry x="215" y="378" width="30" height="30" as="geometry" />
        </mxCell>
      </root>
    </mxGraphModel>
  </diagram>
</mxfile>
